<?xml version="1.0" standalone="no"?>
<svg viewBox="0 0 200 200" xmlns="http://www.w3.org/2000/svg">
  <path fill="#FFF1EF" d="M34.1,-59.8C44.5,-53.2,53.3,-44.5,58.5,-34.2C63.8,-23.9,65.5,-11.9,69,2C72.5,16,77.8,31.9,74.2,45.1C70.6,58.3,58.1,68.7,44.3,74.2C30.4,79.6,15.2,80.1,1.4,77.7C-12.5,75.3,-24.9,70.1,-37.4,63.8C-49.8,57.5,-62.1,50.3,-70.5,39.5C-79,28.7,-83.5,14.3,-81.3,1.3C-79.1,-11.8,-70.1,-23.5,-62,-34.9C-53.9,-46.2,-46.6,-57.2,-36.4,-63.9C-26.2,-70.7,-13.1,-73.2,-0.6,-72.2C11.9,-71.2,23.8,-66.5,34.1,-59.8Z" transform="translate(100 100)" />
</svg>
